<svg xmlns="http://www.w3.org/2000/svg" viewBox="0 0 24 24" fill="black"><path d="M11,16V17.5C11,18.33 11.67,19 12.5,19C13.33,19 14,18.33 14,17.5V16H18V17.5C18,18.33 18.67,19 19.5,19C20.33,19 21,18.33 21,17.5V16C22.66,16 24,14.66 24,13C24,11.34 22.66,10 21,10C21,8.34 19.66,7 18,7C17.75,7 17.5,7.03 17.26,7.09C16.32,5.26 14.41,4 12.2,4C9.99,4 8.08,5.26 7.14,7.09C6.9,7.03 6.65,7 6.4,7C4.74,7 3.4,8.34 3.4,10C1.74,10 0.4,11.34 0.4,13C0.4,14.66 1.74,16 3.4,16H11M15.5,10.5C16.05,10.5 16.5,10.95 16.5,11.5C16.5,12.05 16.05,12.5 15.5,12.5C14.95,12.5 14.5,12.05 14.5,11.5C14.5,10.95 14.95,10.5 15.5,10.5M8.9,10.5C9.45,10.5 9.9,10.95 9.9,11.5C9.9,12.05 9.45,12.5 8.9,12.5C8.35,12.5 7.9,12.05 7.9,11.5C7.9,10.95 8.35,10.5 8.9,10.5Z"/></svg>
